<mxfile host="app.diagrams.net" modified="2024-06-18T10:45:51.606Z" agent="Mozilla/5.0 (Windows NT 10.0; Win64; x64) AppleWebKit/537.36 (KHTML, like Gecko) Chrome/125.0.0.0 Safari/537.36" version="24.5.4" etag="yLXK9vVpEaaE9anVvSr8" type="github">
  <diagram name="Page-1" id="VjMzOT6uG8z4wEfWO3WB">
    <mxGraphModel>
      <root>
        <mxCell id="0" />
        <mxCell id="1" parent="0" />
      </root>
    </mxGraphModel>
  </diagram>
</mxfile>
